#!OML:ASF H:\Terrain\Patient Classification 1\Animal1\Tuesday\Animal1.ASF
:FULLY-SPECIFIED
:DEGREES
1027
root 20.6107 15.7869 -7.31617 -167.801 -10.525 -172.143
lowerback 13.47 -0.947996 -1.45705
upperback 5.56783 -2.0355 1.04957
thorax -1.61122 -1.30611 2.21702
lowerneck -10.8028 3.16751 -1.1754
upperneck -7.78878 3.60316 0.697869
head -0.678073 1.49257 0.496455
rclavicle -1.98785e-014 -6.44062e-014
rhumerus -2.69508 8.70662 4.51483
rradius 27.4011
rwrist -32.7288
rhand -4.70093 4.7124
rfingers 7.12502
rthumb 21.0807 -24.1617
lclavicle -1.98785e-014 -6.44062e-014
lhumerus -4.0576 1.89183 7.45864
lradius 25.3984
lwrist -8.94203
lhand 0.23604 56.7957
lfingers 7.12502
lthumb 25.8164 85.0638
rfemur -41.9717 -20.478 25.1496
rtibia 75.3013
rfoot 1.11978 -24.9261
rtoes 20.5039
lfemur -48.1053 15.1001 -25.8999
ltibia 48.7962
lfoot -20.3288 16.7596
ltoes 35.3343
1028
root 20.582 15.7716 -7.4233 -167.879 -11.2379 -172.419
lowerback 13.592 -0.997336 -1.74786
upperback 5.66947 -2.15229 1.02385
thorax -1.55531 -1.37475 2.3728
lowerneck -10.772 3.20129 -1.19046
upperneck -7.88251 3.64198 0.470175
head -0.708542 1.5119 0.428547
rclavicle 3.33958e-014 3.18055e-015
rhumerus -2.60974 8.3261 4.80749
rradius 27.2463
rwrist -32.5235
rhand -4.36682 3.90335
rfingers 7.12502
rthumb 21.4017 -24.9346
lclavicle 3.33958e-014 3.18055e-015
lhumerus -3.71674 2.74192 7.94637
lradius 25.328
lwrist -9.15716
lhand 0.39633 56.704
lfingers 7.12502
lthumb 25.9699 84.9496
rfemur -43.4878 -20.6614 25.3489
rtibia 75.9208
rfoot -1.30228 -25.7234
rtoes 18.8494
lfemur -47.8255 14.7141 -26.1014
ltibia 49.276
lfoot -20.6916 16.4166
ltoes 35.0268
1029
root 20.554 15.7524 -7.53489 -168.082 -12.1012 -172.303
lowerback 13.8084 -1.10822 -1.60639
upperback 5.77361 -2.29942 1.11236
thorax -1.55573 -1.45541 2.41227
lowerneck -10.529 3.35904 -0.858829
upperneck -8.26316 3.78491 -0.0309555
head -0.84949 1.56734 0.218204
rclavicle 7.15625e-015 -1.82882e-014
rhumerus -2.51561 8.42624 5.12987
rradius 27.1428
rwrist -32.9688
rhand -4.28341 3.42444
rfingers 7.12502
rthumb 21.4818 -25.4044
lclavicle 7.15625e-015 -1.82882e-014
lhumerus -3.47776 3.3491 8.32694
lradius 25.3843
lwrist -8.8337
lhand 0.591557 57.189
lfingers 7.12502
lthumb 26.1569 85.4071
rfemur -44.7489 -20.7194 25.935
rtibia 76.1366
rfoot -2.28936 -26.3187
rtoes 14.9483
lfemur -47.4977 14.2295 -25.813
ltibia 49.7898
lfoot -20.9895 16.2205
ltoes 34.1685
1030
root 20.5246 15.7301 -7.64619 -168.259 -12.9012 -172.338
lowerback 14.0628 -1.19046 -1.55881
upperback 5.86477 -2.42093 1.13765
thorax -1.59049 -1.52272 2.43755
lowerneck -10.314 3.44 -0.756531
upperneck -8.57664 3.86177 -0.254959
head -0.974184 1.59853 0.129636
rclavicle -3.18055e-014 1.90833e-014
rhumerus -2.56418 9.11633 5.469
rradius 27.0818
rwrist -33.8456
rhand -4.79314 4.75545
rfingers 7.12502
rthumb 20.9922 -24.1285
lclavicle -3.18055e-014 1.90833e-014
lhumerus -3.27455 3.53208 8.62011
lradius 25.4151
lwrist -8.10964
lhand 0.674746 57.4144
lfingers 7.12502
lthumb 26.2365 85.6206
rfemur -45.8296 -20.5689 26.3028
rtibia 75.9866
rfoot -1.6479 -25.6667
rtoes 18.569
lfemur -47.1538 13.6916 -25.6431
ltibia 50.3227
lfoot -21.3161 16.0134
ltoes 33.5881
1031
root 20.492 15.7121 -7.7636 -168.361 -13.5975 -172.632
lowerback 14.1525 -1.20179 -1.72328
upperback 5.98207 -2.47476 1.06227
thorax -1.50934 -1.55906 2.45992
lowerneck -10.1001 3.38023 -0.773182
upperneck -8.85615 3.77007 -0.3172
head -1.0937 1.55002 0.106462
rclavicle -3.57812e-014 -1.03368e-014
rhumerus -2.76141 9.46279 5.68121
rradius 27.1486
rwrist -34.3935
rhand -4.96385 5.38483
rfingers 7.12502
rthumb 20.8281 -23.5172
lclavicle -3.57812e-014 -1.03368e-014
lhumerus -3.0621 3.4636 8.89527
lradius 25.472
lwrist -7.30201
lhand 0.680497 57.3777
lfingers 7.12502
lthumb 26.242 85.5832
rfemur -46.8539 -20.3358 26.3047
rtibia 75.5576
rfoot -1.94633 -25.18
rtoes 19.0665
lfemur -46.716 13.2513 -25.7826
ltibia 50.7851
lfoot -21.7336 15.6687
ltoes 33.5564
1032
root 20.4635 15.6879 -7.88111 -168.466 -14.2329 -172.763
lowerback 14.2066 -1.16668 -1.77976
upperback 6.06497 -2.44681 1.00085
thorax -1.45336 -1.55045 2.42343
lowerneck -9.5859 3.38726 -0.512131
upperneck -9.35147 3.73538 -0.46973
head -1.3223 1.52158 0.0061199
rclavicle -2.8625e-014 -7.95139e-016
rhumerus -2.96726 9.41616 5.74956
rradius 27.2079
rwrist -34.6563
rhand -4.54711 4.69405
rfingers 7.12502
rthumb 21.2285 -24.1635
lclavicle -2.8625e-014 -7.95139e-016
lhumerus -2.79896 3.1351 9.09286
lradius 25.618
lwrist -6.41639
lhand 0.727574 57.6612
lfingers 7.12502
lthumb 26.2871 85.8599
rfemur -47.7776 -19.8401 26.4495
rtibia 74.8108
rfoot -3.35492 -24.6192
rtoes 20.1583
lfemur -46.3128 13.0286 -25.8395
ltibia 51.1945
lfoot -21.8517 15.5334
ltoes 32.5417
